<svg width="18" height="19" viewBox="0 0 18 19" fill="none" xmlns="http://www.w3.org/2000/svg">
<path opacity="0.31829" fill-rule="evenodd" clip-rule="evenodd" d="M9 0.755493C6.55575 0.755493 6.24975 0.765981 5.28975 0.80943C2.02125 0.959256 0.20475 2.77064 0.05475 6.03834C0.0105 6.99797 0 7.30361 0 9.74502C0 12.1864 0.0105 12.4928 0.054 13.4517C0.204 16.7164 2.0175 18.5308 5.289 18.6806C6.24975 18.7241 6.55575 18.7345 9 18.7345C11.4443 18.7345 11.751 18.7241 12.711 18.6806C15.9765 18.5308 17.7975 16.7194 17.9452 13.4517C17.9895 12.4928 18 12.1864 18 9.74502C18 7.30361 17.9895 6.99797 17.946 6.03909C17.799 2.77739 15.9832 0.960005 12.7118 0.810179C11.751 0.765981 11.4443 0.755493 9 0.755493ZM9.00008 2.37583C11.4031 2.37583 11.6881 2.38482 12.6376 2.42827C15.0766 2.53914 16.2158 3.69505 16.3268 6.11323C16.3703 7.06087 16.3786 7.34554 16.3786 9.74574C16.3786 12.1467 16.3696 12.4306 16.3268 13.3783C16.2151 15.7942 15.0788 16.9523 12.6376 17.0632C11.6881 17.1067 11.4046 17.1157 9.00008 17.1157C6.59708 17.1157 6.31208 17.1067 5.36333 17.0632C2.91833 16.9516 1.78508 15.7904 1.67408 13.3775C1.63058 12.4299 1.62158 12.1459 1.62158 9.745C1.62158 7.34479 1.63133 7.06087 1.67408 6.11248C1.78583 3.69505 2.92208 2.53839 5.36333 2.42752C6.31283 2.38482 6.59708 2.37583 9.00008 2.37583ZM4.37842 9.74509C4.37842 7.19581 6.44767 5.12897 8.99992 5.12897C11.5522 5.12897 13.6214 7.19581 13.6214 9.74509C13.6214 12.2951 11.5522 14.362 8.99992 14.362C6.44767 14.362 4.37842 12.2944 4.37842 9.74509ZM9 12.7416C7.34325 12.7416 6 11.4006 6 9.74505C6 8.09023 7.34325 6.74854 9 6.74854C10.6567 6.74854 12 8.09023 12 9.74505C12 11.4006 10.6567 12.7416 9 12.7416ZM12.7236 4.94686C12.7236 4.3513 13.2074 3.86811 13.8044 3.86811C14.4006 3.86811 14.8836 4.3513 14.8836 4.94686C14.8836 5.54241 14.4006 6.0256 13.8044 6.0256C13.2074 6.0256 12.7236 5.54241 12.7236 4.94686Z" fill="black"/>
</svg>
